<mxfile host="app.diagrams.net" modified="2022-11-12T16:45:18.178Z" agent="5.0 (Windows NT 10.0; Win64; x64) AppleWebKit/537.36 (KHTML, like Gecko) Chrome/107.0.0.0 Safari/537.36" etag="NqOo6DMysLADUTY-zm-z" version="20.5.3" type="github">
  <diagram id="mXjp-qoDQwhhcC1k-OAn" name="太阳能板产线">
    <mxGraphModel dx="1111" dy="714" grid="1" gridSize="10" guides="1" tooltips="1" connect="1" arrows="1" fold="1" page="1" pageScale="1" pageWidth="827" pageHeight="1169" math="0" shadow="0">
      <root>
        <mxCell id="0" />
        <mxCell id="1" parent="0" />
      </root>
    </mxGraphModel>
  </diagram>
</mxfile>
